<svg width="54" height="54" viewBox="0 0 54 54" fill="none" xmlns="http://www.w3.org/2000/svg">
<path d="M38.0657 15.2655C36.1039 15.1441 34.1322 15.085 32.1594 15.0885C25.6191 15.0885 21.5545 17.5184 21.5545 21.4298V24.0854H16.0605C15.8026 24.0854 15.5553 24.1452 15.3729 24.2515C15.1906 24.3579 15.0881 24.5022 15.0881 24.6526V29.02C15.0881 29.1704 15.1906 29.3147 15.3729 29.4211C15.5553 29.5274 15.8026 29.5872 16.0605 29.5872H21.5545V38.3447C21.5545 38.4951 21.657 38.6394 21.8393 38.7458C22.0217 38.8522 22.269 38.9119 22.5269 38.9119H30.2632C30.5211 38.9119 30.7685 38.8522 30.9508 38.7458C31.1332 38.6394 31.2356 38.4951 31.2356 38.3447V29.5872H36.7121C36.9482 29.5873 37.1763 29.5372 37.3538 29.4464C37.5312 29.3556 37.646 29.2303 37.6767 29.0937L38.6433 24.7263C38.6613 24.6463 38.6498 24.5649 38.6095 24.4877C38.5693 24.4104 38.5012 24.3391 38.4099 24.2784C38.3186 24.2177 38.2061 24.1691 38.08 24.1358C37.9539 24.1026 37.8171 24.0854 37.6787 24.0854H31.2356V21.8631C31.2356 20.7628 31.6149 20.3033 33.9739 20.3033H37.9393C38.1972 20.3033 38.4445 20.2436 38.6269 20.1372C38.8092 20.0308 38.9117 19.8866 38.9117 19.7361V15.8282C38.9118 15.6904 38.826 15.5574 38.6703 15.4539C38.5147 15.3504 38.2998 15.2834 38.0657 15.2655ZM36.9669 19.1678L33.9719 19.1689C29.777 19.1689 29.2908 20.7072 29.2908 21.8631V24.6537C29.2908 24.804 29.393 24.9481 29.575 25.0544C29.7569 25.1607 30.0037 25.2206 30.2613 25.2209H36.574L35.8564 28.4539H30.2632C30.0053 28.4539 29.758 28.5137 29.5757 28.6201C29.3933 28.7264 29.2908 28.8707 29.2908 29.0211V37.7764H23.4993V29.0211C23.4993 28.8707 23.3969 28.7264 23.2145 28.6201C23.0321 28.5137 22.7848 28.4539 22.5269 28.4539H17.0349V25.2209H22.5269C22.7848 25.2209 23.0321 25.1612 23.2145 25.0548C23.3969 24.9484 23.4993 24.8042 23.4993 24.6537V21.4298C23.4993 18.1695 26.7374 16.2229 32.1594 16.2229C34.1217 16.2229 35.8934 16.2853 36.9669 16.3398V19.1678Z" fill="white"/>
<circle cx="27" cy="27" r="26" stroke="white" stroke-width="2"/>
</svg>
