<svg width="146" height="21" viewBox="0 0 146 21" fill="none" xmlns="http://www.w3.org/2000/svg">
<path d="M11.1881 0.0134277L13.5304 7.27615L21.1614 7.25947L14.978 11.7314L17.352 18.9838L11.1881 14.4849L5.02426 18.9838L7.39825 11.7314L1.21479 7.25947L8.84585 7.27615L11.1881 0.0134277Z" fill="#F5B205"/>
<path d="M42.1613 0.0134277L44.5035 7.27615L52.1346 7.25947L45.9511 11.7314L48.3251 18.9838L42.1613 14.4849L35.9974 18.9838L38.3714 11.7314L32.1879 7.25947L39.819 7.27615L42.1613 0.0134277Z" fill="#F5B205"/>
<path d="M73.1344 0.0134277L75.4767 7.27615L83.1077 7.25947L76.9243 11.7314L79.2983 18.9838L73.1344 14.4849L66.9705 18.9838L69.3445 11.7314L63.1611 7.25947L70.7921 7.27615L73.1344 0.0134277Z" fill="#F5B205"/>
<path d="M104.108 0.0134277L106.45 7.27615L114.081 7.25947L107.897 11.7314L110.271 18.9838L104.108 14.4849L97.9437 18.9838L100.318 11.7314L94.1343 7.25947L101.765 7.27615L104.108 0.0134277Z" fill="#F5B205"/>
<path d="M135.081 0.0134277L137.423 7.27615L145.054 7.25947L138.871 11.7314L141.245 18.9838L135.081 14.4849L128.917 18.9838L131.291 11.7314L125.107 7.25947L132.738 7.27615L135.081 0.0134277Z" fill="#F5B205"/>
</svg>
