<svg width="54" height="54" viewBox="0 0 54 54" fill="none" xmlns="http://www.w3.org/2000/svg">
<path d="M38.9117 15.1017C38.9117 15.1017 36.7264 16.6843 35.5114 17.1331C34.8592 16.2137 33.9925 15.562 33.0284 15.2663C32.0643 14.9705 31.0494 15.0449 30.1209 15.4794C29.1924 15.9139 28.3951 16.6875 27.837 17.6956C27.2788 18.7038 26.9866 19.8978 26.9999 21.1161V22.4438C25.0969 22.5043 23.2112 21.9868 21.5108 20.9375C19.8103 19.8881 18.348 18.3395 17.2539 16.4294C17.2539 16.4294 12.9224 28.3786 22.6683 33.6893C20.4382 35.5454 17.7814 36.476 15.0881 36.3447C24.8341 42.9831 36.7459 36.3447 36.7459 21.0763C36.7459 20.7072 36.7156 20.3381 36.6593 19.9743C37.7638 18.6387 38.9117 15.1017 38.9117 15.1017Z" stroke="white" stroke-width="1.875" stroke-linecap="round" stroke-linejoin="round"/>
<circle cx="27" cy="27" r="26" stroke="white" stroke-width="2"/>
</svg>
