<svg width="60" height="60" viewBox="0 0 60 60" fill="none" xmlns="http://www.w3.org/2000/svg">
<path d="M40 5H20C10 5 5 10 5 20V52.5C5 53.875 6.125 55 7.5 55H40C50 55 55 50 55 40V20C55 10 50 5 40 5Z" stroke="#FF432A" stroke-width="1.5" stroke-linecap="round" stroke-linejoin="round"/>
<path d="M32.275 19.6L19.3 32.575C18.8 33.075 18.325 34.05 18.225 34.75L17.525 39.7C17.275 41.5 18.525 42.75 20.325 42.5L25.275 41.8C25.975 41.7 26.9501 41.225 27.4501 40.725L40.4251 27.75C42.6501 25.525 43.7251 22.925 40.4251 19.625C37.1251 16.3 34.525 17.35 32.275 19.6Z" stroke="#FF432A" stroke-width="1.5" stroke-miterlimit="10" stroke-linecap="round" stroke-linejoin="round"/>
<path d="M30.425 21.45C31.525 25.375 34.6 28.475 38.55 29.575" stroke="#FF432A" stroke-width="1.5" stroke-miterlimit="10" stroke-linecap="round" stroke-linejoin="round"/>
</svg>
