<svg width="60" height="60" viewBox="0 0 60 60" fill="none" xmlns="http://www.w3.org/2000/svg">
<path d="M51.25 28.25V17.6C51.25 7.52502 48.9 5 39.45 5H20.55C11.1 5 8.75 7.52502 8.75 17.6V45.75C8.75 52.4 12.4 53.975 16.825 49.225L16.85 49.2C18.9 47.025 22.025 47.2 23.8 49.575L26.325 52.95" stroke="#09BC70" stroke-width="1.5" stroke-linecap="round" stroke-linejoin="round"/>
<path d="M20 17.5H40" stroke="#09BC70" stroke-width="1.5" stroke-linecap="round" stroke-linejoin="round"/>
<path d="M22.5 27.5H37.5" stroke="#09BC70" stroke-width="1.5" stroke-linecap="round" stroke-linejoin="round"/>
<path d="M45.5275 36.9257L36.6776 45.7757C36.3276 46.1257 36.0025 46.7757 35.9275 47.2507L35.4525 50.6257C35.2775 51.8507 36.1275 52.7007 37.3525 52.5257L40.7276 52.0507C41.2026 51.9757 41.8775 51.6507 42.2025 51.3007L51.0526 42.4507C52.5776 40.9257 53.3026 39.1507 51.0526 36.9007C48.8276 34.6757 47.0525 35.4007 45.5275 36.9257Z" stroke="#09BC70" stroke-width="1.5" stroke-miterlimit="10" stroke-linecap="round" stroke-linejoin="round"/>
<path d="M44.248 38.2007C44.998 40.9007 47.098 43.0007 49.798 43.7507" stroke="#09BC70" stroke-width="1.5" stroke-miterlimit="10" stroke-linecap="round" stroke-linejoin="round"/>
</svg>
