<svg width="54" height="54" viewBox="0 0 54 54" fill="none" xmlns="http://www.w3.org/2000/svg">
<path d="M26.9999 21.2825C25.8691 21.2825 24.7636 21.6178 23.8233 22.2461C22.8831 22.8744 22.1502 23.7673 21.7175 24.8121C21.2847 25.8569 21.1715 27.0065 21.3921 28.1156C21.6127 29.2247 22.1573 30.2435 22.9569 31.0431C23.7565 31.8428 24.7753 32.3873 25.8844 32.6079C26.9936 32.8285 28.1432 32.7153 29.1879 32.2826C30.2327 31.8498 31.1257 31.117 31.7539 30.1767C32.3822 29.2364 32.7175 28.131 32.7175 27.0001C32.7175 25.4837 32.1152 24.0294 31.0429 22.9572C29.9706 21.8849 28.5163 21.2825 26.9999 21.2825ZM26.9999 30.8119C26.246 30.8119 25.509 30.5884 24.8822 30.1695C24.2554 29.7507 23.7668 29.1554 23.4783 28.4588C23.1898 27.7623 23.1143 26.9959 23.2614 26.2565C23.4085 25.5171 23.7715 24.8379 24.3046 24.3048C24.8377 23.7717 25.5169 23.4087 26.2563 23.2616C26.9957 23.1145 27.7621 23.19 28.4586 23.4785C29.1551 23.767 29.7504 24.2556 30.1693 24.8824C30.5881 25.5093 30.8117 26.2462 30.8117 27.0001C30.8085 28.0101 30.4059 28.9778 29.6918 29.692C28.9776 30.4062 28.0099 30.8088 26.9999 30.8119ZM32.2411 15.0884H21.7587C19.9896 15.0884 18.2929 15.7912 17.0419 17.0421C15.7909 18.2931 15.0881 19.9898 15.0881 21.759V32.2413C15.0881 34.0105 15.7909 35.7072 17.0419 36.9581C18.2929 38.2091 19.9896 38.9119 21.7587 38.9119H32.2411C34.0102 38.9119 35.7069 38.2091 36.9579 36.9581C38.2089 35.7072 38.9117 34.0105 38.9117 32.2413V21.759C38.9117 19.9898 38.2089 18.2931 36.9579 17.0421C35.7069 15.7912 34.0102 15.0884 32.2411 15.0884ZM37.0058 32.2413C37.0058 32.867 36.8825 33.4866 36.6431 34.0647C36.4036 34.6428 36.0527 35.168 35.6102 35.6105C35.1678 36.0529 34.6425 36.4039 34.0645 36.6433C33.4864 36.8828 32.8668 37.006 32.2411 37.006H21.7587C21.133 37.006 20.5134 36.8828 19.9353 36.6433C19.3573 36.4039 18.832 36.0529 18.3896 35.6105C17.9471 35.168 17.5962 34.6428 17.3567 34.0647C17.1173 33.4866 16.994 32.867 16.994 32.2413V21.759C16.994 20.4953 17.496 19.2834 18.3896 18.3898C19.2831 17.4963 20.495 16.9943 21.7587 16.9943H32.2411C32.8668 16.9943 33.4864 17.1175 34.0645 17.357C34.6425 17.5964 35.1678 17.9474 35.6102 18.3898C36.0527 18.8323 36.4036 19.3575 36.6431 19.9356C36.8825 20.5137 37.0058 21.1333 37.0058 21.759V32.2413ZM34.6234 20.806C34.6234 21.0887 34.5396 21.3651 34.3825 21.6002C34.2255 21.8352 34.0022 22.0184 33.741 22.1266C33.4798 22.2348 33.1924 22.2631 32.9152 22.208C32.6379 22.1528 32.3832 22.0167 32.1833 21.8168C31.9834 21.6169 31.8472 21.3622 31.7921 21.0849C31.7369 20.8076 31.7652 20.5202 31.8734 20.259C31.9816 19.9978 32.1648 19.7746 32.3999 19.6175C32.6349 19.4604 32.9113 19.3766 33.194 19.3766C33.5731 19.3766 33.9367 19.5272 34.2048 19.7953C34.4728 20.0633 34.6234 20.4269 34.6234 20.806Z" fill="white"/>
<circle cx="27" cy="27" r="26" stroke="white" stroke-width="2"/>
</svg>
