<svg width="32" height="32" viewBox="0 0 32 32" fill="none" xmlns="http://www.w3.org/2000/svg">
<rect width="32" height="32" fill="#FF432A" fill-opacity="0.28"/>
<path d="M24.3333 9.89174V19.9501C24.3333 20.7501 23.6833 21.5001 22.8833 21.6001L22.6083 21.6334C20.7916 21.8751 17.9916 22.8001 16.3916 23.6834C16.1749 23.8084 15.8166 23.8084 15.5916 23.6834L15.5583 23.6668C13.9583 22.7918 11.1667 21.8751 9.35832 21.6334L9.11662 21.6001C8.31662 21.5001 7.66663 20.7501 7.66663 19.9501V9.8834C7.66663 8.89173 8.47494 8.14174 9.4666 8.22508C11.2166 8.36674 13.8666 9.2501 15.3499 10.1751L15.5583 10.3001C15.7999 10.4501 16.2 10.4501 16.4417 10.3001L16.5833 10.2084C17.1083 9.88341 17.775 9.55841 18.5 9.26674V12.6668L20.1666 11.5584L21.8333 12.6668V8.31678C22.0583 8.27511 22.275 8.25008 22.475 8.23342H22.525C23.5166 8.15008 24.3333 8.89174 24.3333 9.89174Z" stroke="#FF432A" stroke-opacity="0.6" stroke-width="1.5" stroke-linecap="round" stroke-linejoin="round"/>
<path d="M16 10.575V23.075" stroke="#FF432A" stroke-opacity="0.6" stroke-width="1.5" stroke-linecap="round" stroke-linejoin="round"/>
<path d="M21.8333 8.31665V12.6666L20.1667 11.5583L18.5 12.6666V9.26661C19.5917 8.83328 20.8083 8.48332 21.8333 8.31665Z" stroke="#FF432A" stroke-opacity="0.6" stroke-width="1.5" stroke-linecap="round" stroke-linejoin="round"/>
</svg>
