<svg width="147" height="146" viewBox="0 0 147 146" fill="none" xmlns="http://www.w3.org/2000/svg">
<g filter="url(#filter0_d_8_577)">
<rect x="30.5" y="26" width="86" height="86" rx="20" fill="#09BC70"/>
<path d="M81.0749 65.925L95.225 56.4501C96.65 55.5001 97.0249 53.5501 96.0749 52.1501L91.5249 45.375C90.5749 43.95 88.6249 43.575 87.2249 44.525L73.075 54L81.0749 65.925Z" stroke="white" stroke-width="1.5" stroke-linecap="round" stroke-linejoin="round"/>
<path d="M73.9345 55.1981L61.9904 63.1978L68.3901 72.7531L80.3343 64.7534L73.9345 55.1981Z" stroke="white" stroke-width="1.5" stroke-linecap="round" stroke-linejoin="round"/>
<path d="M58.075 78.75L67.95 72.15L62.35 63.8L52.475 70.4C51.325 71.175 51.025 72.725 51.8 73.875L54.625 78.075C55.375 79.2 56.925 79.5 58.075 78.75Z" stroke="white" stroke-width="1.5" stroke-linecap="round" stroke-linejoin="round"/>
<path d="M73.625 69.5L62.4 94" stroke="white" stroke-width="1.5" stroke-linecap="round" stroke-linejoin="round"/>
<path d="M73.5 69.5L84.6 94" stroke="white" stroke-width="1.5" stroke-linecap="round" stroke-linejoin="round"/>
</g>
<defs>
<filter id="filter0_d_8_577" x="0.5" y="0" width="146" height="146" filterUnits="userSpaceOnUse" color-interpolation-filters="sRGB">
<feFlood flood-opacity="0" result="BackgroundImageFix"/>
<feColorMatrix in="SourceAlpha" type="matrix" values="0 0 0 0 0 0 0 0 0 0 0 0 0 0 0 0 0 0 127 0" result="hardAlpha"/>
<feOffset dy="4"/>
<feGaussianBlur stdDeviation="15"/>
<feComposite in2="hardAlpha" operator="out"/>
<feColorMatrix type="matrix" values="0 0 0 0 0 0 0 0 0 0 0 0 0 0 0 0 0 0 0.16 0"/>
<feBlend mode="normal" in2="BackgroundImageFix" result="effect1_dropShadow_8_577"/>
<feBlend mode="normal" in="SourceGraphic" in2="effect1_dropShadow_8_577" result="shape"/>
</filter>
</defs>
</svg>
